HIERARCHY
ROOT hip
{
	OFFSET 0.000000 0.000000 0.000000 
	CHANNELS 6 Xposition Yposition Zposition Xrotation Zrotation Yrotation
	JOINT abdomen
	{
		OFFSET 0.000000 3.402643 0.000000 
		CHANNELS 3 Xrotation Zrotation Yrotation
		JOINT chest
		{
			OFFSET 0.000000 8.438565 -0.680529 
			CHANNELS 3 Xrotation Zrotation Yrotation
			JOINT neck
			{
				OFFSET 0.000000 10.207942 -0.272212 
				CHANNELS 3 Xrotation Zrotation Yrotation
				JOINT head
				{
					OFFSET 0.000000 3.130431 0.000000 
					CHANNELS 3 Xrotation Zrotation Yrotation
					End Site
					{
						OFFSET 0.000000 3.130435 0.000000 
					}
				}
			}
			JOINT lCollar
			{
				OFFSET 3.470700 6.669187 -0.816635 
				CHANNELS 3 Yrotation Zrotation Xrotation
				JOINT lShldr
				{
					OFFSET 3.198488 0.000000 0.000000 
					CHANNELS 3 Zrotation Yrotation Xrotation
					JOINT lForeArm
					{
						OFFSET 10.139888 0.000000 0.000000 
						CHANNELS 3 Yrotation Zrotation Xrotation
						JOINT lHand
						{
							OFFSET 8.370511 0.000000 0.000000 
							CHANNELS 3 Zrotation Yrotation Xrotation
							End Site
							{
								OFFSET 4.083176 0.000000 0.000000 
							}
						}
					}
				}
			}
			JOINT rCollar
			{
				OFFSET -3.470700 6.669187 -0.816635 
				CHANNELS 3 Yrotation Zrotation Xrotation
				JOINT rShldr
				{
					OFFSET -3.198488 0.000000 0.000000 
					CHANNELS 3 Zrotation Yrotation Xrotation
					JOINT rForeArm
					{
						OFFSET -10.139888 0.000000 0.000000 
						CHANNELS 3 Yrotation Zrotation Xrotation
						JOINT rHand
						{
							OFFSET -8.370511 0.000000 0.000000 
							CHANNELS 3 Zrotation Yrotation Xrotation
							End Site
							{
								OFFSET -4.083176 0.000000 0.000000 
							}
						}
					}
				}
			}
		}
	}
	JOINT lThigh
	{
		OFFSET 5.308129 -1.633274 1.361059 
		CHANNELS 3 Xrotation Zrotation Yrotation
		JOINT lShin
		{
			OFFSET -2.041588 -20.007561 0.000000 
			CHANNELS 3 Xrotation Zrotation Yrotation
			JOINT lFoot
			{
				OFFSET 0.000000 -19.190928 -1.224953 
				CHANNELS 3 Xrotation Yrotation Zrotation
				End Site
				{
					OFFSET 0.000000 -2.449906 4.627600 
				}
			}
		}
	}
	JOINT rThigh
	{
		OFFSET -5.308129 -1.633274 1.361059 
		CHANNELS 3 Xrotation Zrotation Yrotation
		JOINT rShin
		{
			OFFSET 2.041588 -20.007561 0.000000 
			CHANNELS 3 Xrotation Zrotation Yrotation
			JOINT rFoot
			{
				OFFSET 0.000000 -19.190928 -1.224953 
				CHANNELS 3 Xrotation Yrotation Zrotation
				End Site
				{
					OFFSET 0.000000 -2.449906 4.627600 
				}
			}
		}
	}
}
MOTION
Frames: 13
Frame Time: 0.033333
18.323284 50.844154 -78.672150 161.533203 -179.667969 -0.791072 44.313503 -14.257446 -17.291901 -36.171879 13.134766 -4.091796 51.063168 8.107644 2.471410 -98.115234 8.564452 -10.097655 2.000000 -2.000000 0.000000 -90.214844 18.017578 -29.716797 -134.353973 2.388222 -2.209610 10.787896 14.227865 -24.377178 -2.000000 2.000000 0.000000 124.658203 -29.111328 -82.211784 130.080338 -2.340389 -2.694540 18.920944 -48.093796 -25.262939 -37.128040 30.682795 4.415884 26.365545 -4.678522 -2.420508 -1.172036 -6.605547 -18.972929 -26.148211 -20.482704 -16.154961 20.368229 4.813585 1.885315 0.070917 -0.569714 17.991955 
18.571844 51.048988 -78.723862 161.357422 -179.501953 -1.259850 44.190140 -15.021248 -18.426266 -36.171879 12.783204 -4.052734 51.063168 8.107644 2.471410 -98.320313 9.140625 -9.355469 2.000000 -2.000000 0.000000 -88.652344 16.835938 -27.851563 -136.110870 2.438670 -2.183225 9.805018 13.573688 -24.079266 -2.000000 2.000000 0.000000 123.613281 -29.931641 -79.047844 128.344589 -1.936454 -3.081478 21.926094 -48.739460 -27.883533 -35.495834 30.866913 6.030456 23.857790 -4.745498 -2.257543 0.195391 -6.759139 -19.041380 -25.711067 -20.007271 -17.151646 18.953171 4.862558 1.621045 0.394074 0.331457 17.680519 
18.678535 51.182922 -78.715652 161.533203 -179.169922 -2.207173 44.034893 -15.743032 -19.277910 -36.162113 12.441407 -4.013671 51.063168 8.107644 2.471410 -95.488281 9.658202 -8.230783 2.000000 -2.000000 0.000000 -87.392578 15.517578 -26.862621 -137.515961 2.479938 -2.146523 8.753499 12.910194 -23.799265 -2.000000 2.000000 0.000000 121.884766 -31.093750 -76.557770 127.993050 -1.926704 -3.080914 24.209394 -48.553780 -29.269875 -33.903870 31.276615 7.759772 22.617521 -4.862739 -2.186674 0.504622 -6.589044 -18.901365 -25.126146 -19.754642 -18.359280 17.196627 4.921428 1.484777 1.434642 1.933712 16.366625 
18.685362 51.293221 -78.642174 161.181641 -179.169922 -2.197407 44.207787 -16.542040 -19.634144 -35.986332 11.914063 -4.257813 51.063168 8.107644 2.471410 -92.109375 9.814452 -7.314454 2.000000 -2.000000 0.000000 -85.947266 12.929688 -26.103514 -138.570053 2.500573 -2.128173 7.949261 12.435194 -23.523802 -2.000000 2.000000 0.000000 118.447266 -33.300785 -75.229973 129.936127 -1.781593 -3.052968 24.367758 -47.287479 -28.126051 -35.047115 31.355543 7.269442 22.647612 -4.784707 -2.340257 0.439611 -6.679275 -18.765614 -25.028219 -19.617495 -20.177402 16.312376 4.949182 1.425721 2.128959 2.732031 14.996811 
18.550203 51.269585 -78.511536 159.775406 -179.843750 -0.664089 44.646431 -17.270187 -19.048338 -35.263676 11.044922 -4.541015 51.063168 8.107644 2.471410 -91.406250 9.707030 -7.957338 2.000000 -2.000000 0.000000 -84.277344 9.414063 -26.111681 -139.451065 2.399107 -2.190690 6.852290 12.437543 -23.751186 -2.000000 2.000000 0.000000 114.179688 -34.980469 -73.945313 133.070267 -2.443671 -2.768975 24.217514 -45.876137 -26.411383 -38.680973 30.653704 4.159401 23.363356 -4.779362 -2.213252 1.201679 -6.339362 -18.522514 -25.583452 -19.780956 -22.100744 15.952530 4.959360 1.367998 2.656366 2.342072 14.627422 
18.384960 51.245949 -78.321983 158.017593 179.160156 1.601706 45.184872 -17.541073 -18.540829 -34.726566 10.517579 -5.097656 51.063168 8.107644 2.471410 -94.257813 9.589844 -11.962891 2.000000 -2.000000 0.000000 -82.939453 5.185547 -25.936617 -140.152313 2.540555 -1.778909 6.092670 12.345250 -24.007755 -2.000000 2.000000 0.000000 111.679688 -34.843754 -74.785156 135.728287 -2.490824 -2.127178 25.772718 -44.814381 -26.525784 -43.090652 29.459553 0.168604 24.946306 -4.726594 -2.333316 0.561460 -5.972482 -18.938316 -26.483732 -20.096506 -23.962263 15.952536 4.959354 1.367996 2.666769 1.581613 15.188851 
18.339716 51.238071 -78.083611 156.250000 177.900391 3.994498 45.901585 -17.320700 -18.827524 -34.365234 10.693360 -5.400391 51.063168 8.107644 2.471410 -98.330070 9.384765 -16.502314 2.000000 -2.000000 0.000000 -81.972656 1.240234 -27.802734 -140.867432 2.252871 -2.182138 5.023034 12.681872 -24.097767 -2.000000 2.000000 0.000000 112.548828 -33.076176 -78.457031 136.416046 -2.568013 -2.649064 28.969881 -44.469250 -28.385818 -47.833199 28.598997 -2.847142 26.186361 -4.677936 -2.425335 1.178346 -6.304711 -18.276108 -27.577309 -20.086409 -25.650856 15.956565 4.794496 1.474517 2.822960 0.688631 16.068317 
18.520466 51.285343 -77.744553 154.287109 176.650391 6.133383 46.981697 -16.305185 -20.366343 -34.726563 12.089844 -5.419921 51.063168 8.107644 2.471410 -100.664063 9.462889 -17.138672 2.000000 -2.000000 0.000000 -81.689453 -2.666016 -30.820768 -141.218964 2.262620 -2.182708 3.606592 13.516706 -25.134296 -2.000000 2.000000 0.000000 114.228516 -30.498049 -82.490234 136.942535 -2.589208 -2.621398 33.045502 -43.801922 -31.423464 -52.159294 27.955061 -3.932472 27.423389 -4.628884 -2.526342 1.230777 -7.477487 -16.566078 -28.991035 -20.257811 -26.813894 16.499092 4.939907 1.430103 2.668854 -0.393014 16.561235 
18.833714 51.356243 -77.261665 152.666031 175.781250 7.842515 47.909786 -14.442909 -22.682764 -35.283203 14.365233 -5.419922 51.063168 8.107644 2.471410 -100.859375 9.570312 -13.435877 2.000000 -2.000000 0.000000 -79.326172 -7.421875 -36.835938 -140.691650 2.252871 -2.182138 1.050064 16.110622 -27.955198 -2.000000 2.000000 0.000000 113.740234 -28.222658 -84.765625 136.942535 -2.589208 -2.621398 37.760746 -43.603775 -35.161186 -56.181564 27.832130 -4.425886 28.469425 -4.583970 -2.611662 1.588909 -8.389409 -14.840955 -30.896160 -20.406231 -27.080425 17.191618 4.920100 1.650040 2.494527 -1.052173 17.179182 
19.018167 51.364120 -76.771248 -28.935547 4.589844 -171.473831 48.947952 -12.518728 -24.728334 -35.849609 16.455078 -5.263672 51.063168 8.107644 2.471410 -100.478516 9.365234 -9.062501 2.000000 -2.000000 0.000000 -73.466797 -11.982421 -45.722656 -138.748535 2.378472 -2.209040 -3.202323 20.465364 -33.674862 -2.000000 2.000000 0.000000 110.839844 -27.001955 -84.750526 136.064484 -2.568013 -2.649064 41.742462 -43.676418 -38.698936 -59.088936 27.821110 -4.213172 29.527441 -4.522110 -2.654327 1.501017 -8.982113 -13.920256 -33.385010 -20.628653 -26.932299 18.246429 4.881267 1.721676 2.644308 -1.282085 17.868357 
18.924898 51.253822 -76.290222 149.658218 175.429688 8.067184 49.320690 -11.534324 -25.313795 -36.230469 17.675783 -5.143519 51.063168 8.107644 2.471410 -100.078125 8.476562 -6.180201 2.000000 -2.000000 0.000000 -68.076172 -13.515625 -54.277344 -136.455368 2.306823 -2.263129 -6.446592 24.352413 -39.117001 -2.000000 2.000000 0.000000 106.464844 -26.914063 -84.179688 134.825455 -2.526753 -2.685786 44.019360 -43.715111 -41.598225 -61.577255 27.820333 -3.860885 30.578085 -4.482909 -2.779557 1.524352 -8.572433 -13.521051 -36.034351 -21.024359 -26.302670 19.475269 4.412444 1.722176 2.316234 -0.261960 18.578979 
18.595451 51.041119 -75.847130 148.085953 175.791016 7.246810 49.626392 -11.246617 -25.098431 -36.240234 17.851563 -4.999999 51.063168 8.107644 2.471410 -99.843750 7.001953 -4.403107 2.000000 -2.000000 0.000000 -65.810547 -13.613280 -62.131207 -133.670547 1.716883 -2.482964 -7.664347 27.448811 -43.068401 -2.000000 2.000000 0.000000 102.314453 -26.386719 -84.843750 133.245453 -2.464300 -2.750614 46.900932 -43.667648 -45.150421 -63.357216 27.567513 -3.481243 31.642811 -4.424372 -2.812780 1.028974 -8.087015 -13.475073 -39.274704 -22.076653 -24.660889 21.079855 4.793753 1.784911 2.126117 -0.549528 18.427656 
18.189631 50.757507 -75.400124 146.513687 176.308594 6.016253 49.925491 -11.019557 -24.446390 -36.240234 18.027344 -5.019530 51.063168 8.107644 2.471410 -100.195313 5.751953 -3.143553 2.000000 -2.000000 0.000000 -65.166016 -12.080079 -69.933685 -130.481537 2.039059 -2.325742 -8.395309 30.131725 -47.414085 -2.000000 2.000000 0.000000 97.578125 -26.210939 -85.351563 131.308807 -2.393094 -2.629147 49.658573 -43.717831 -49.039692 -65.311096 27.206598 -3.143664 32.168365 -4.395114 -2.867535 0.688933 -7.306517 -13.816673 -42.436649 -22.836035 -23.339846 22.676064 4.736121 2.071385 1.943633 0.082763 18.110662 
